{
  "accessors": [
    {
      "bufferView": 2,
      "componentType": 5126,
      "count": 47360,
      "max": [
        4.960923671722412,
        3.4637601375579834,
        5.943234920501709
      ],
      "min": [
        -4.960926055908203,
        -3.627063751220703,
        -3.9828553199768066
      ],
      "type": "VEC3"
    },
    {
      "bufferView": 2,
      "byteOffset": 568320,
      "componentType": 5126,
      "count": 47360,
      "max": [
        1.0,
        1.0,
        1.0
      ],
      "min": [
        -1.0,
        -1.0,
        -1.0
      ],
      "type": "VEC3"
    },
    {
      "bufferView": 1,
      "componentType": 5126,
      "count": 47360,
      "max": [
        1.5691146850585938,
        1.690222978591919
      ],
      "min": [
        -0.5992546081542969,
        -1.0413742065429688
      ],
      "type": "VEC2"
    },
    {
      "bufferView": 0,
      "componentType": 5125,
      "count": 85995,
      "type": "SCALAR"
    },
    {
      "bufferView": 2,
      "byteOffset": 1136640,
      "componentType": 5126,
      "count": 422,
      "max": [
        0.9299710988998413,
        0.0,
        0.8641390800476074
      ],
      "min": [
        -0.9299710988998413,
        -0.8220000267028809,
        -2.0268383026123047
      ],
      "type": "VEC3"
    },
    {
      "bufferView": 2,
      "byteOffset": 1141704,
      "componentType": 5126,
      "count": 422,
      "max": [
        1.0,
        1.0,
        1.0
      ],
      "min": [
        -1.0,
        -1.0,
        -0.8361265659332275
      ],
      "type": "VEC3"
    },
    {
      "bufferView": 1,
      "byteOffset": 378880,
      "componentType": 5126,
      "count": 422,
      "max": [
        1.0,
        1.0
      ],
      "min": [
        0.0,
        0.0
      ],
      "type": "VEC2"
    },
    {
      "bufferView": 0,
      "byteOffset": 343980,
      "componentType": 5125,
      "count": 828,
      "type": "SCALAR"
    }
  ],
  "asset": {
    "extras": {
      "author": "tkkjee ​🥀 (https://sketchfab.com/tkkjee)",
      "license": "CC-BY-4.0 (http://creativecommons.org/licenses/by/4.0/)",
      "source": "https://sketchfab.com/3d-models/glitch-abstract-d9659fb29ba14bbc82f785e2a0f505d7",
      "title": "Glitch Abstract"
    },
    "generator": "Sketchfab-13.84.0",
    "version": "2.0"
  },
  "bufferViews": [
    {
      "buffer": 0,
      "byteLength": 347292,
      "name": "floatBufferViews",
      "target": 34963
    },
    {
      "buffer": 0,
      "byteLength": 382256,
      "byteOffset": 347292,
      "byteStride": 8,
      "name": "floatBufferViews",
      "target": 34962
    },
    {
      "buffer": 0,
      "byteLength": 1146768,
      "byteOffset": 729548,
      "byteStride": 12,
      "name": "floatBufferViews",
      "target": 34962
    }
  ],
  "buffers": [
    {
      "byteLength": 1876316,
      "uri": "scene.bin"
    }
  ],
  "materials": [
    {
      "doubleSided": true,
      "name": "rocket_base.001",
      "pbrMetallicRoughness": {
        "baseColorFactor": [
          0.34174559239471186,
          0.0,
          1.0,
          1.0
        ],
        "metallicFactor": 0.37638209945020784,
        "roughnessFactor": 0.26666747936755614
      }
    },
    {
      "doubleSided": true,
      "name": "purple_12.001",
      "pbrMetallicRoughness": {
        "baseColorFactor": [
          0.138431,
          0.0684782,
          1.0,
          1.0
        ],
        "metallicFactor": 0.0,
        "roughnessFactor": 0.79965
      }
    }
  ],
  "meshes": [
    {
      "name": "Object_0",
      "primitives": [
        {
          "attributes": {
            "NORMAL": 1,
            "POSITION": 0,
            "TEXCOORD_0": 2
          },
          "indices": 3,
          "material": 0,
          "mode": 4
        }
      ]
    },
    {
      "name": "Object_1",
      "primitives": [
        {
          "attributes": {
            "NORMAL": 5,
            "POSITION": 4,
            "TEXCOORD_0": 6
          },
          "indices": 7,
          "material": 1,
          "mode": 4
        }
      ]
    }
  ],
  "nodes": [
    {
      "children": [
        1
      ],
      "matrix": [
        1.0,
        0.0,
        0.0,
        0.0,
        0.0,
        -1.0,
        -4.440892098500626e-16,
        0.0,
        0.0,
        4.440892098500626e-16,
        -1.0,
        0.0,
        0.0,
        0.0,
        0.0,
        1.0
      ],
      "name": "Sketchfab_model"
    },
    {
      "children": [
        2
      ],
      "name": "root"
    },
    {
      "children": [
        3
      ],
      "matrix": [
        1.0,
        0.0,
        0.0,
        0.0,
        0.0,
        2.220446049250313e-16,
        1.0,
        0.0,
        0.0,
        -1.0,
        2.220446049250313e-16,
        0.0,
        0.0,
        0.0,
        0.0,
        1.0
      ],
      "name": "GLTF_SceneRootNode"
    },
    {
      "children": [
        4,
        5
      ],
      "matrix": [
        2.32895565032959,
        0.0,
        -0.0,
        0.0,
        -0.0,
        1.9631627679629164e-07,
        -2.328955650329582,
        0.0,
        0.0,
        2.328955650329582,
        1.9631627679629164e-07,
        0.0,
        0.0,
        3.9279839992523193,
        0.0,
        1.0
      ],
      "name": "Plane.002_3"
    },
    {
      "mesh": 0,
      "name": "Object_4"
    },
    {
      "children": [
        6
      ],
      "matrix": [
        1.0,
        0.0,
        0.0,
        0.0,
        0.0,
        1.0,
        0.0,
        0.0,
        0.0,
        0.0,
        1.0,
        0.0,
        0.0,
        -0.011536662466824055,
        1.0481104850769043,
        1.0
      ],
      "name": "Plane_2"
    },
    {
      "mesh": 1,
      "name": "Object_6"
    }
  ],
  "scene": 0,
  "scenes": [
    {
      "name": "Sketchfab_Scene",
      "nodes": [
        0
      ]
    }
  ]
}
